<svg xmlns="http://www.w3.org/2000/svg" width="141.905" height="17.493" viewBox="0 0 141.905 17.493">
    <defs>
        <style>
            .cls-1{fill:#222}
        </style>
    </defs>
    <g id="black_swatchon_logo" transform="translate(-95.336 -484.922)">
        <g id="그룹_1050" transform="translate(95.336 484.922)">
            <path id="패스_886" d="M546.648 498.519a5.714 5.714 0 1 1-.164-9.8l.272.158 2.18-2.178-.41-.277a8.749 8.749 0 1 0 .175 14.362l.394-.281-2.173-2.155z" class="cls-1" transform="translate(-465.019 -484.922)"/>
            <path id="패스_887" d="M445.789 489.141h4.984v14.147h3.544v-14.147h4.973V486.2h-13.5z" class="cls-1" transform="translate(-390.079 -485.999)"/>
            <path id="패스_888" d="M653.931 486.134v6.779h-9.1v-6.759h-3.544v17.085h3.544v-6.782h9.1v6.762h3.544v-17.085z" class="cls-1" transform="translate(-554.5 -485.941)"/>
            <path id="패스_889" d="M891.385 485.278a8.088 8.088 0 0 0-8.361 8.174v9.063h3.543V493.8c0-3.212 1.891-5.288 4.818-5.288 2.864 0 4.787 2.125 4.787 5.288v8.718h3.542v-9.063a8.071 8.071 0 0 0-8.329-8.177z" class="cls-1" transform="translate(-757.809 -485.221)"/>
            <path id="패스_890" d="M769.877 485.06a8.724 8.724 0 1 0 8.724 8.724 8.734 8.734 0 0 0-8.724-8.724zm5.7 8.724a5.7 5.7 0 1 1-5.7-5.7 5.7 5.7 0 0 1 5.699 5.7z" class="cls-1" transform="translate(-655.311 -485.038)"/>
            <path id="패스_891" d="M103.039 492.4l-2.052-.727c-1.487-.527-2.209-1.149-2.209-1.9a2.361 2.361 0 0 1 2.575-2.052 2.457 2.457 0 0 1 2.518 1.74l.129.771 3.093-.39-.151-.813a5.442 5.442 0 0 0-5.589-4.091c-3.126 0-5.669 2.17-5.669 4.836 0 1.378.72 3.275 4.146 4.491l2.024.728c1.216.429 2.612 1.067 2.612 2.191a2.74 2.74 0 0 1-2.979 2.4 2.826 2.826 0 0 1-2.987-2.214l-.077-.773-3.091.2.083.814c.27 2.67 2.936 4.761 6.068 4.761 3.348 0 6.073-2.326 6.073-5.185.004-2.116-1.517-3.726-4.517-4.787z" class="cls-1" transform="translate(-95.336 -484.933)"/>
        </g>
        <g id="그룹_1051" transform="translate(108.543 486.903)">
            <path id="패스_892" d="M212.478 497.9l-7.786 7.786-7.8-7.8-7.843 7.843-8.311-8.355-2.327 2.406 10.639 10.638 7.843-7.842 7.8 7.8 10.131-10.171z" class="cls-1" transform="translate(-178.416 -497.383)"/>
            <path id="패스_893" d="M416.16 535.724l-6.085-6.007-2.33 2.36 6.1 6.025z" class="cls-1" transform="translate(-371.29 -524.577)"/>
        </g>
    </g>
</svg>
